<svg version="1.1" id="Слой_1" xmlns="http://www.w3.org/2000/svg" x="0" y="0" viewBox="0 0 416.5 512" xml:space="preserve">
  <style>
    .st0{fill:#353231}.st1{fill:#514e4d}.st2{fill:#e6af78}.st4{fill:#f0c087}.st6{fill:#694b4b}.st8{fill:#ef162b}
  </style>
  <path class="st0" d="M304.5 84.6c-9.4-44.1-36-74.1-48.1-80.1-27-13.5-36 8-48.1 8-12.1 0-21.1-21.5-48.1-8-12.1 6-38.7 36-48.1 80.1s96.2 8 96.2 8 105.4 36 96.2-8z"/>
  <path class="st1" d="M307 94.2L109.3 93l4.1-14s57-10 93.3-10c39.7 0 96.4 9.9 96.4 9.9l3.9 15.3z"/>
  <ellipse class="st0" cx="208.3" cy="148.1" rx="184.2" ry="68.1"/>
  <path class="st2" d="M273.4 346.4v-50.3H144.1v50.3l64.6 57.6 64.7-57.6z"/>
  <path d="M144.1 296.1v53.1c81.4 29.3 129.4-44.1 129.4-44.1v-9H144.1z" fill="#d29b6e"/>
  <path class="st4" d="M115.9 142.4l5.7 126.2c.6 12.9 6.9 24.8 17.2 32.5l29.7 22.3c7.4 5.6 16.6 8.6 25.9 8.6h28.7c9.4 0 18.4-3 25.9-8.6l29.7-22.3c10.3-7.8 16.7-19.7 17.2-32.5l5.7-128.7s-81.3-12.3-89.1-12.2c-41.7.7-96.6 14.7-96.6 14.7z"/>
  <path class="st2" d="M187.2 159.7c28.7 0 71.8-4 82.1-25.6l-153.4 8.4 5.7 126.2c.6 12.9 6.9 24.8 17.2 32.5l29.7 22.3c7.4 5.6 16.6 8.6 25.9 8.6h14.4c-14.4 0-43.1-28.7-43.1-64.6v-86.2c0-7.3 7.2-21.6 21.5-21.6z"/>
  <path d="M259.1 130.9c30.8 6.2 35.2 54.4 35.8 68.2.1 2.6 1 4.9 2.3 7.1l11.7 18.3s8-66 6.1-82.8c-18.9-6.1-33.1-8.4-56-11.1l.1.3z" fill="#785550"/>
  <path class="st4" d="M316.2 221.3l-8.2 32.5c-1 3.9-4.4 6.6-8.4 6.6-4.4 0-8-3.3-8.5-7.5l-4.1-33.2c-1.1-8.9 5.8-16.7 14.7-16.7 9.7-.2 16.8 8.9 14.5 18.3z"/>
  <path class="st6" d="M272.1 132.2c-18.7-2.8-38.8-4.4-59.7-4.4-44.6 0-74.8 3.4-107.5 15.3-1.9 15.8 3.2 81.2 3.2 81.2l14.4-14.4s-5.6-41.5 21.5-57.5c25.2-14.9 47.1-7.2 69.6-7.2 28.3.1 46.9-4.9 58.5-13z"/>
  <path d="M174.1 129.6c-29.7 2.8-46 5.1-69 13.5-1.9 15.8 3.2 81.2 3.2 81.2l14.4-14.4s-5.6-41.5 21.5-57.5c25.2-14.9 47.1-7.2 69.6-7.2 9.7 0 18.3-.6 25.9-1.8-25.4.9-45.2-9.2-65.6-13.8z" fill="#5a4146"/>
  <path class="st2" d="M101.4 221.3l8.2 32.5c1 3.9 4.4 6.6 8.4 6.6 4.4 0 8-3.3 8.5-7.5l4.1-33.2c1.1-8.9-5.8-16.7-14.7-16.7-9.7-.2-16.8 8.9-14.5 18.3z"/>
  <path class="st0" d="M392.5 512c13.3 0 24-10.7 24-24v-47.7c0-35.3-27.5-72.9-61-83.6l-50.2-16.1c-26.9 20.6-65.5 48.7-97.2 48.7s-70.1-28.1-97.2-48.7l-50 16.1C27.4 367.4 0 405 0 440.3V488c0 13.3 10.7 24 24 24h368.5z"/>
  <path class="st8" d="M231.8 512h-45.2l5.7-103.6h33.8l5.7 103.6z"/>
  <path class="st8" d="M231.8 390.3h-45.2v17c0 5.6 4.5 10.1 10.1 10.1h25c5.6 0 10.1-4.5 10.1-10.1v-17z"/>
  <path class="st1" d="M208.3 389.3l-33.5 33.5c-3.5 3.5-9.3 3-12.2-1L104 341.2l18.6-18.6c3-3 7.9-3.2 11.1-.2l74.6 66.9zM208.3 389.3l33.5 33.5c3.5 3.5 9.3 3 12.2-1l58.6-80.6-18.7-18.6c-3-3-7.9-3.2-11.1-.2l-74.5 66.9z"/>
  <path class="st6" d="M212.6 263.6c0-10.6-10.2-13-17-10.5-12.4 4.7-26.1 17.8-37.5 9.7 0 0 4 16.9 10.7 16.9 13.4.1 43.8 1.8 43.8-16.1z"/>
  <path class="st6" d="M209.3 263.6c0-10.6 10.2-13 17-10.5 12.4 4.7 26.1 17.8 37.5 9.7 0 0-4 16.9-10.7 16.9-13.5.1-43.8 1.8-43.8-16.1z"/>
</svg>