<svg version="1.1" id="Layer_1" xmlns="http://www.w3.org/2000/svg" x="0" y="0" viewBox="0 0 386.7 512" xml:space="preserve">
  <style>
    .st1{fill:#e6af78}.st2{fill:#694b4b}.st7{fill:#a0d2f0}
  </style>
  <path d="M90.6 419.4v-26.8c0-5.3-2.1-10.3-5.7-13.9L58 400c-4.8 3.9-7.5 9.5-7.5 15.7v17.1h26.8c7.4 0 13.3-6 13.3-13.4z" fill="#e4eaf6"/>
  <path class="st1" d="M308.4 251.6l5.9 23.7c.6 2.8 3.2 4.8 6.2 4.8 3.2 0 5.9-2.3 6.3-5.5l3.1-24.2c.8-6.4-4.3-12.2-10.8-12.2-7.2-.2-12.4 6.4-10.7 13.4z"/>
  <path class="st2" d="M193.5 0C13.5 0 33.4 218.9 34.3 377.6c0 5.9 3.2 11.3 8.3 14.4 20 12 74.8 40.1 151 40.1s131-28.1 151-40.1c5.2-3.1 8.3-8.5 8.3-14.4C353.5 218.9 373.5 0 193.5 0z"/>
  <path d="M181.9.4C14.4 9.8 33.4 222.5 34.2 377.6c0 5.9 3.2 11.3 8.3 14.4 20 12 74.8 40.1 151 40.1L239 113.6" fill="#5a4146"/>
  <path class="st2" d="M193.5 0C91.2 0 84.1 123.6 84.1 123.6c59.1-9.9 95.3 15 155-9.9l-45.5 318.5c76.2 0 131-28.1 151-40.1 5.2-3.1 8.3-8.5 8.3-14.4C353.5 218.9 373.5 0 193.5 0z"/>
  <path d="M352.8 377.6c.6-136.3 15.5-317.1-94.6-365.3-1.9 9.9-5.4 37.8 3.6 55.8 22.7 45.5 45.5 45.5 68.2 79.7 22.7 125.1-43.5 257.9-65.5 276 38.9-9.3 66.9-24 79.9-31.7 5.1-3.1 8.4-8.5 8.4-14.5z" fill="#785550"/>
  <path class="st1" d="M365.8 412.1l-101.5-42.3c-8.5-3.5-14.1-11.9-14.1-21v-27.5H136.5v27.5c0 9.2-5.5 17.4-14.1 21L21 412.1c-12.8 5.3-21 17.7-21 31.5V489c0 12.5 10.2 22.7 22.7 22.7H364c12.5 0 22.7-10.2 22.7-22.7v-45.5c.1-13.6-8.1-26.1-20.9-31.4z"/>
  <path d="M365.8 412.1l-98.1-40.9-74.3 32-74.3-32L21 412.1c-12.8 5.3-21 17.7-21 31.5V489c0 12.5 10.2 22.7 22.7 22.7H364c12.5 0 22.7-10.2 22.7-22.7v-45.5c.1-13.6-8.1-26.1-20.9-31.4z" fill="#b4e1fa"/>
  <path d="M250.4 321.3H136.5v27.5c0 9.2-5.5 17.4-14.1 21l-15.9 6.6c121.6 30.9 143.9-55.1 143.9-55.1z" fill="#d29b6e"/>
  <path class="st7" d="M55.6 456.2L9.9 419.8C3.8 426.1.1 434.5.1 443.7v45.5c0 12.5 10.2 22.7 22.7 22.7h45.5v-29.1c0-10.4-4.6-20.2-12.7-26.6zM386.8 489.2v-45.5c0-9-3.6-17.4-9.7-23.7l-45.8 36.2c-8.1 6.4-12.8 16.2-12.8 26.7V512H364c12.6-.1 22.8-10.3 22.8-22.8zM193.5 489.2c-6.3 0-11.3-5.2-11.3-11.3v-74.4h22.7v74.3c0 6.2-5.2 11.4-11.4 11.4z"/>
  <path class="st7" d="M193.5 403.3l-65.1-48.9c-4.1-3.1-10.2-2.1-13 2.2L102.5 376l40 55.8c3.1 4.3 9 5 13.2 1.8l37.8-30.3zM193.5 403.3l65.1-48.9c4.1-3.1 10.2-2.1 13 2.2l12.9 19.3-40 55.8c-3.1 4.3-9 5-13.2 1.8l-37.8-30.2z"/>
  <path d="M250.4 102.4c-56.9 56.9-168.5 11.3-168.5 102.4l7.1 67c1.4 15 10.1 28.4 23.2 35.7l64.7 36c10.3 5.7 22.8 5.7 33.1 0l64.7-36c13.2-7.3 21.8-20.6 23.2-35.7l8.1-79.6c.6-5.7.6-11.3.5-17-4-29-44.8-50.1-56.1-72.8z" fill="#f0c087"/>
  <path class="st1" d="M81.9 204.7l7.1 67c1.4 15 10.1 28.4 23.2 35.7l64.7 36c7.1 4 15.3 5 23.2 3.5 0 0-32.6-9.9-52.1-62.5-5.9-16.1-14.2-101.5-7.1-111.9 14.1-20.6 92.4-22.7 115.5-61-1.2-1.4-2.2-2.8-3.2-4.3-.1-.1-.1-.3-.3-.4-1-1.5-1.9-3-2.7-4.5-56.7 56.9-168.3 11.4-168.3 102.4z"/>
  <path class="st7" d="M284.4 489.2h-45.5c-6.3 0-11.3 5.2-11.3 11.3v11.3h68.2v-11.3c.1-6.3-5.1-11.3-11.4-11.3z"/>
</svg>