<svg version="1.1" id="Capa_1" xmlns="http://www.w3.org/2000/svg" x="0" y="0" viewBox="0 0 417.3 512" xml:space="preserve">
  <style>
    .st0{display:none}.st1{display:inline;fill:#353231}.st3{fill:#4f6e8d}.st4{fill:#29394a}.st7{fill:#e6af78}.st9{fill:#f0c087}.st13{fill:#475f7f}.st15{fill:#694b4b}
  </style>
  <g class="st0">
    <path class="st1" d="M305.3 84.6c-9.4-44.1-36-74.1-48.1-80.1-27-13.5-36 8-48.1 8C197 12.5 188-9 161 4.5c-12.1 6-38.7 36-48.1 80.1s96.2 8 96.2 8 105.4 36 96.2-8z"/>
    <path d="M307.9 94.2L110.1 93l4.1-14s57-10 93.3-10c39.7 0 96.4 9.9 96.4 9.9l4 15.3z" fill="#514e4d"/>
  </g>
  <g class="st0">
    <ellipse class="st1" cx="209.1" cy="148.1" rx="184.2" ry="68.1"/>
  </g>
  <path class="st3" d="M351.6 90.9c0 40.4-64 50.3-142.7 50.3S66.7 131.4 66.7 90.9 130.5 2.3 209.1 2.3s142.5 48.1 142.5 88.6z"/>
  <path class="st4" d="M102.2 149c5.1 20 49.5 35.5 106.9 35.5S311 168.6 316 148.6l-213.8.4z"/>
  <path d="M316 150.4v-42.7c0-5.2-3.7-9.5-8.3-9.5 0 0-50.5-10.1-103-10.1-45.5 0-94.5 10.1-94.5 10.1-4.5 0-8.3 4.3-8.3 9.5v42.9h214v-.2z" fill="#474f65"/>
  <ellipse cx="209.1" cy="53.2" rx="13.8" ry="24" fill="#ffd267"/>
  <path class="st7" d="M274.2 346.4v-50.3H145v50.3l64.6 57.6z"/>
  <path d="M145 296.1v53.1c81.4 29.3 129.4-44.1 129.4-44.1v-9H145z" fill="#d29b6e"/>
  <path class="st9" d="M209.4 184.6c-39.6 0-72.9-7.4-91.6-18.6l4.6 102.6c.6 12.9 6.9 24.8 17.2 32.5l29.7 22.3c7.4 5.6 16.6 8.6 25.9 8.6H224c9.4 0 18.4-3 25.9-8.6l29.7-22.3c10.3-7.8 16.7-19.7 17.2-32.5l4.6-103.2c-18.5 11.4-52.1 19.2-92 19.2z"/>
  <path class="st7" d="M166.5 267.4v-86c-17.3-2.7-32-6.9-43-12.3l-1.1 99.6c.6 12.9 6.9 24.8 17.2 32.5l29.7 22.3c7.4 5.6 16.6 8.6 25.9 8.6h14.4c-14.4 0-43.1-28.8-43.1-64.7z"/>
  <path d="M291.7 170.5c3 11.8 3.9 23 4.1 28.6.1 2.6 1 4.9 2.3 7.1l11.7 18.3s6.3-51.6 6.3-75.1c-2.3 7.8-11 15.3-24.4 21.1z" fill="#785550"/>
  <path class="st9" d="M317 221.3l-8.2 32.5c-1 3.9-4.4 6.6-8.4 6.6-4.4 0-8-3.3-8.5-7.5l-4.1-33.2c-1.1-8.9 5.8-16.7 14.7-16.7 9.7-.2 16.8 8.9 14.5 18.3z"/>
  <path fill="none" d="M109 224.3l14.4-14.3"/>
  <path d="M127.5 170.9c-10.3-4.5-18-9.9-22.2-15.7.1 24.5 3.7 69.1 3.7 69.1l14.4-14.4c0 .1-2.5-21.5 4.1-39z" fill="#5a4146"/>
  <path class="st7" d="M102.2 221.3l8.2 32.5c1 3.9 4.4 6.6 8.4 6.6 4.4 0 8-3.3 8.5-7.5l4.1-33.2c1.1-8.9-5.8-16.7-14.7-16.7-9.7-.2-16.8 8.9-14.5 18.3z"/>
  <path class="st3" d="M393.3 512c13.3 0 24-10.7 24-24v-47.7c0-35.3-27.5-72.9-61-83.6l-50.2-16.1c-26.9 20.6-65.5 48.7-97.2 48.7s-70.1-28.1-97.2-48.7l-50 16.1C28.1 367.4.7 405 .7 440.3V488c0 13.3 10.7 24 24 24h368.6z"/>
  <path class="st4" d="M232.6 512h-45.2l5.8-103.6H227z"/>
  <path class="st4" d="M232.6 390.3h-45.2v17c0 5.6 4.5 10.1 10.1 10.1h25c5.6 0 10.1-4.5 10.1-10.1v-17z"/>
  <path class="st13" d="M209.1 389.3l-33.5 33.5c-3.5 3.5-9.3 3-12.2-1l-58.6-80.6 18.6-18.6c3-3 7.9-3.2 11.1-.2l74.6 66.9z"/>
  <path class="st13" d="M209.1 389.3l33.5 33.5c3.5 3.5 9.3 3 12.2-1l58.6-80.6-18.7-18.6c-3-3-7.9-3.2-11.1-.2l-74.5 66.9z"/>
  <path d="M102 143.2c-1.8 11.3-1.9 25-1.9 41.1 0 64.2 35.9 144.1 109.1 144.1s109.1-80.1 109.1-144.1c0-16.2-.1-29.8-1.9-41.1-29.3-9.9-66.6-15.8-107.1-15.8s-78 6-107.3 15.8z" fill="#ffe1b2"/>
  <path class="st15" d="M213.4 263.6c0-10.6-10.2-13-17-10.5-12.4 4.7-26.1 17.8-37.5 9.7 0 0 4 16.9 10.7 16.9 13.5.1 43.8 1.8 43.8-16.1z"/>
  <path class="st15" d="M210.1 263.6c0-10.6 10.2-13 17-10.5 12.4 4.7 26.1 17.8 37.5 9.7 0 0-4 16.9-10.7 16.9-13.5.1-43.8 1.8-43.8-16.1z"/>
</svg>