<svg version="1.1" id="Capa_1" xmlns="http://www.w3.org/2000/svg" x="0" y="0" viewBox="0 0 416.1 512" xml:space="preserve">
  <style>
    .st0{fill:#e6af78}.st2{fill:#f0c087}.st3{fill:#7e5449}.st5{fill:#545465}.st6{fill:#d0d7dc}.st7{fill:#475f7f}.st8{fill:#e4ebf0}.st9{fill:#ea1313}
  </style>
  <path class="st0" d="M271.6 335.1v-50.2H142.5v50.2l64.6 57.5z"/>
  <path d="M142.5 284.9v53c81.3 29.3 129.2-44 129.2-44v-9H142.5z" fill="#d29b6e"/>
  <path class="st2" d="M114.3 131.3l5.7 126.1c.6 12.9 6.9 24.8 17.1 32.5l29.7 22.3c7.4 5.6 16.5 8.6 25.9 8.6h28.7c9.4 0 18.4-3 25.9-8.6l29.7-22.3c10.3-7.8 16.7-19.7 17.1-32.5l5.7-128.5s-81.2-12.3-89-12.2c-41.7.6-96.5 14.6-96.5 14.6z"/>
  <path class="st0" d="M185.5 148.6c28.7 0 71.7-4 81.9-25.5l-153.2 8.4 5.7 126.1c.6 12.9 6.9 24.8 17.1 32.5l29.7 22.3c7.4 5.6 16.5 8.6 25.9 8.6h14.3c-14.3 0-43-28.7-43-64.6v-86.1c.1-7.4 7.3-21.7 21.6-21.7z"/>
  <path class="st3" d="M120.1 144c-3.3 9.6-3 48.8-3 48.8l-17.6 11.8-7.8-64.1 28.4 3.5zM296.2 144c3.3 9.6 0 47.5 0 47.5l18.6 15.8 9.8-66.9-28.4 3.6z"/>
  <path class="st2" d="M314.3 210.1l-8.1 32.5c-1 3.9-4.4 6.6-8.4 6.6-4.4 0-8-3.3-8.5-7.5l-4.1-33.2c-1.1-8.9 5.8-16.7 14.7-16.7 9.7-.2 16.7 8.9 14.4 18.3z"/>
  <path class="st0" d="M99.8 210.1l8.1 32.5c1 3.9 4.4 6.6 8.4 6.6 4.4 0 8-3.3 8.5-7.5l4.1-33.2c1.1-8.9-5.8-16.7-14.7-16.7-9.6-.2-16.7 8.9-14.4 18.3z"/>
  <path d="M392.1 512c13.3 0 24-10.7 24-24v-61.2c0-35.3-27.5-72.8-60.9-83.5l-50.1-16c-26.9 20.5-65.4 48.6-97 48.6s-70-28.1-97-48.6l-50.1 16c-33.6 10.8-61 48.3-61 83.6V488c0 13.3 10.7 24 24 24h368.1z" fill="#527992"/>
  <path class="st5" d="M224.1 400c0 4.4-3.6 8-8 8h-15.9c-4.4 0-8-3.6-8-8v-16c0-4.4 3.6-8 8-8h16c4.4 0 8 3.6 8 8v16h-.1z"/>
  <circle class="st6" cx="208.2" cy="448" r="8"/>
  <path class="st7" d="M208.2 376.1l-33.4 33.4c-3.5 3.5-9.2 3-12.2-1L104.1 328l18.6-18.6c3-3 7.9-3.2 11.1-.2l74.4 66.9z"/>
  <path class="st7" d="M208.2 376.1l33.4 33.4c3.5 3.5 9.2 3 12.2-1l58.5-80.5-18.6-18.6c-3-3-7.9-3.2-11.1-.2l-74.4 66.9z"/>
  <path class="st5" d="M219.1 403.5l-10.9 4.5-11.1-4.5-5 108.5h32z"/>
  <path class="st8" d="M394.9 511.8c11.9-1.5 21.2-11.4 21.2-23.7v-61.2c0-35.3-27.5-72.8-60.9-83.5l-43.6-14L248 511.8h146.9zM104.7 329.4l-43.6 14C27.5 354.1.2 391.7.2 426.9V488c0 12.3 9.2 22.3 21.2 23.7h146.9l-63.6-182.3z"/>
  <path class="st6" d="M104.1 328l-34 41.1c-3.2 3.6-2.4 9.2 1.6 11.9L88 392l-19 19c-2.8 2.8-3.2 7.4-.6 10.6l51.7 90.5 48-.2-64-183.9zM312.1 328l34 41.1c3.2 3.6 2.4 9.2-1.6 11.9l-16.3 11 19 19c2.8 2.8 3.2 7.4.6 10.6L296.2 512l-48-.2L312.1 328z"/>
  <path class="st8" d="M328.2 144h-240V28.9c75.4-38.4 164.6-38.4 240 0V144z"/>
  <path class="st9" d="M180.2 65.2h63.7v24h-63.7z"/>
  <path class="st9" d="M200.1 45.2h24v63.7h-24z"/>
</svg>