<svg version="1.1" id="Слой_1" xmlns="http://www.w3.org/2000/svg" x="0" y="0" viewBox="0 0 460.3 512" xml:space="preserve">
  <style>
    .st0{fill:#e6af78}.st3{fill:#f0c087}.st4{fill:#514e4d}.st5{fill:#ef162b}.st7{fill:#694b4b}
  </style>
  <path class="st0" d="M310.1 361.9v-61.8H151.3v61.8l79.4 70.7 79.4-70.7z"/>
  <path d="M433 390.8l-109.2-25.7c-1.6-.4-3.2-1-4.6-1.8l-88.5 51.6-85-54.1c-2.2 2.1-4.9 3.6-8 4.3L28.4 390.8c-16 3.8-27.2 18-27.2 34.4v69.1c0 9.8 7.9 17.7 17.7 17.7h423.7c9.8 0 17.7-7.9 17.7-17.7v-69.1c-.1-16.4-11.4-30.6-27.3-34.4z" fill="#353231"/>
  <path d="M151.3 300.1v65.2c100.1 36.1 158.9-54.2 158.9-54.2v-11H151.3z" fill="#d29b6e"/>
  <path class="st3" d="M115.9 97.1l7.7 169.2c.7 15.8 8.5 30.5 21.1 40l36.5 27.4c9.2 6.9 20.3 10.6 31.8 10.6h35.3c11.5 0 22.6-3.7 31.8-10.6l36.5-27.4c12.7-9.5 20.4-24.2 21.1-40l7.7-169.2H115.9z"/>
  <path class="st0" d="M204.2 132.4c35.3 0 88.3-8.8 100.8-35.3H115.9l7.7 169.2c.7 15.8 8.5 30.5 21.1 40l36.5 27.4c9.2 6.9 20.3 10.6 31.8 10.6h17.7c-17.7 0-53-35.3-53-79.4V159c0-8.9 8.9-26.6 26.5-26.6z"/>
  <path class="st4" d="M66 454.7L8.8 403.3C4 409.4 1.2 417 1.2 425.2v69.1c0 9.8 7.9 17.7 17.7 17.7h61.8v-24.5c-.1-12.5-5.4-24.4-14.7-32.8zM395.4 454.7l57.2-51.4c4.8 6.1 7.6 13.7 7.6 21.9v69.1c0 9.8-7.9 17.7-17.7 17.7h-61.8v-24.5c.1-12.5 5.4-24.4 14.7-32.8z"/>
  <path class="st5" d="M252.8 512h-44.2l5.6-79.4h33.1l5.5 79.4z"/>
  <path class="st5" d="M252.8 414.9h-44.1v16.6c0 5.5 4.4 9.9 9.9 9.9H243c5.5 0 9.9-4.4 9.9-9.9l-.1-16.6z"/>
  <path class="st4" d="M150 342.3l80.7 72.6s-22.6 11.4-50.5 34.4c-5.8 4.7-14.5 2.8-17.5-4l-37.9-83.4 12-18c3-4.4 9.2-5.2 13.2-1.6zM311.4 342.3l-80.7 72.6s22.6 11.4 50.5 34.4c5.8 4.7 14.5 2.8 17.5-4l37.9-83.4-12-18c-2.9-4.4-9.2-5.2-13.2-1.6z"/>
  <path d="M284.2 38.6l8.3 58.5c37.8 7.6 43.2 66.8 44 83.8.1 3.1 1.1 6 2.8 8.6l14.4 22.4s-4.9-37 17.7-61.8c0 0 7.7-146.8-87.2-111.5z" fill="#785550"/>
  <path class="st3" d="M362.6 208.1l-10 39.9c-1.2 4.7-5.4 8-10.3 8-5.4 0-9.9-4-10.5-9.3l-5.1-40.8c-1.4-10.9 7.1-20.6 18.1-20.6 11.9.1 20.6 11.3 17.8 22.8z"/>
  <path class="st7" d="M124.4 22.8l13.1 8.9c-59 43.6-48 118.3-48 118.3 17.7 17.7 17.7 61.8 17.7 61.8l17.7-17.7s-6.8-51 26.5-70.6c30.9-18.2 57.9-8.8 85.5-8.8 73.9 0 94.6-27.9 91-61.8-2-17.5-28.8-54-97.2-52.9-27.6.5-79.4 8.9-106.3 22.8z"/>
  <path d="M119.3 107.1s-9.4-37 18.2-75.3c-59 43.6-48 118.3-48 118.3 17.7 17.7 17.7 61.8 17.7 61.8l17.7-17.7s-6.8-51 26.5-70.6c30.9-18.2 57.9-8.8 85.5-8.8 12 0 22.5-.8 31.8-2.2-57 1.9-90.6-41.2-149.4-5.5z" fill="#5a4146"/>
  <path class="st0" d="M98.9 208.1l10 39.9c1.2 4.7 5.4 8 10.3 8 5.4 0 9.9-4 10.5-9.3l5.1-40.8c1.4-10.9-7.1-20.6-18.1-20.6-12 .1-20.7 11.3-17.8 22.8z"/>
  <path class="st7" d="M230.7 264.7c0-11.8-11.5-14.5-19-11.6-13.9 5.3-29.1 19.9-42 10.9 0 0 4.5 18.9 12 18.9 15.1 0 49 1.9 49-18.2z"/>
  <path class="st7" d="M227.1 264.7c0-11.8 11.5-14.5 19-11.6 13.9 5.3 29.1 19.9 42 10.9 0 0-4.5 18.9-12 18.9-15.1 0-49 1.9-49-18.2z"/>
</svg>