<svg version="1.1" id="Layer_1" xmlns="http://www.w3.org/2000/svg" x="0" y="0" viewBox="0 0 485.3 512" xml:space="preserve">
  <style>
    .st0{fill:#29394a}.st3{fill:#ffe1b2}
  </style>
  <path class="st0" d="M327.7 369.2V288H159.8v77.9l83.9 62.2z"/>
  <path class="st0" d="M456.3 383.7l-128.5-23.1c-1.7-.4-43.7 47.5-85.2 48.5-38.8 1-79.4-49.5-82.7-48.7l-131 23.2C12 387.6.2 402.6.2 420v73c0 10.4 8.4 18.7 18.7 18.7h447.8c10.4 0 18.7-8.4 18.7-18.7v-73c-.4-17.3-12.3-32.4-29.1-36.3z"/>
  <path d="M456.3 383.9l-102.1-21.4c-1.7-.4-15.7-2.9-17.2-3.7 0 0-52.8 49.5-94.4 50.5-38.8 1-92.6-49.9-92.6-49.9-3.6.5-17.5 2.5-20.8 3.2L28.7 384C11.8 388 0 403 0 420.4v73c0 10.4 8.4 18.7 18.7 18.7h447.8c10.4 0 18.7-8.4 18.7-18.7v-73c-.2-17.5-12.1-32.5-28.9-36.5z" fill="#545465"/>
  <path d="M159.8 288v68.9c105.8 38.2 168-57.3 168-57.3V288h-168z" fill="#1e2a35"/>
  <path class="st0" d="M379.5 176.6c0 93.1-68 168.6-135.2 168.6s-138.8-75.5-138.8-168.6S141.5 0 242.5 0c101.9 0 137 83.6 137 176.6z"/>
  <path class="st3" d="M219.8 162.8c0 17.2-13.4 31.7-34.6 31.7s-42.5-4.7-42.5-21.8 19.2-41.5 40.4-41.5 36.7 14.4 36.7 31.6zM261.8 162.8c0 17.2 13.4 31.7 34.6 31.7 21.1 0 42.5-4.7 42.5-21.8s-19.2-41.5-40.4-41.5-36.7 14.4-36.7 31.6zM288.4 266.4c0 14.3-23.4 23.7-48.9 23.7s-47.4-8.5-47.4-22.7c0-14.3 23.3-37.6 48.8-37.6 25.7-.1 47.5 22.3 47.5 36.6z"/>
  <path class="st0" d="M124.3 512l-45.1-.2-1.7-141.2 46.8-9.3zM359.2 512l45.1-.2 1.7-141.2-46.8-9.3z"/>
</svg>