<svg version="1.1" id="Layer_1" xmlns="http://www.w3.org/2000/svg" x="0" y="0" viewBox="0 0 387.7 512" xml:space="preserve">
  <style>
    .st1{fill:#e6af78}.st6{fill:#dd36a1}.st9{fill:#c63532}
  </style>
  <path d="M91.5 419.4v-26.8c0-5.3-2.1-10.3-5.7-13.9L58.9 400c-4.8 3.9-7.5 9.5-7.5 15.7v17.1h26.8c7.4 0 13.3-6 13.3-13.4z" fill="#e4eaf6"/>
  <path class="st1" d="M309.3 251.6l5.9 23.7c.6 2.8 3.2 4.8 6.2 4.8 3.2 0 5.9-2.3 6.3-5.5l3.1-24.2c.8-6.4-4.3-12.2-10.8-12.2-7.2-.2-12.4 6.4-10.7 13.4z"/>
  <path d="M194.4 0C14.4 0 34.3 218.9 35.2 377.6c0 5.9 3.2 11.3 8.3 14.4 20 12 74.8 40.1 151 40.1s131-28.1 151-40.1c5.2-3.1 8.3-8.5 8.3-14.4C354.4 218.9 374.4 0 194.4 0z" fill="#694b4b"/>
  <path d="M182.8.4C15.3 9.8 34.3 222.5 35 377.6c0 5.9 3.2 11.3 8.3 14.4 20 12 74.8 40.1 151 40.1l45.5-318.5" fill="#af7120"/>
  <path d="M194.4 0C92 0 84.9 123.6 84.9 123.6c59.1-9.9 95.3 15 155-9.9l-45.5 318.5c76.2 0 131-28.1 151-40.1 5.2-3.1 8.3-8.5 8.3-14.4C354.4 218.9 374.4 0 194.4 0z" fill="#c98523"/>
  <path d="M353.6 377.6c.6-136.3 15.5-317.1-94.6-365.3-1.9 9.9-5.4 37.8 3.6 55.8 22.7 45.5 45.5 45.5 68.2 79.7 22.7 125.1-43.5 257.9-65.5 276 38.9-9.3 66.9-24 79.9-31.7 5.2-3.1 8.4-8.5 8.4-14.5z" fill="#e59a23"/>
  <path class="st1" d="M366.6 412.1l-101.5-42.3c-8.5-3.5-14.1-11.9-14.1-21v-27.5H137.4v27.5c0 9.2-5.5 17.4-14.1 21L21.9 412.1c-12.8 5.3-21 17.7-21 31.5V489c0 12.5 10.2 22.7 22.7 22.7h341.3c12.5 0 22.7-10.2 22.7-22.7v-45.5c.1-13.6-8.2-26.1-21-31.4z"/>
  <path class="st6" d="M366.6 412.1L316.1 391s-74.4 116.2-122 116.2c-53.5 0-124.9-114.8-124.9-114.8L22 412.1c-12.8 5.3-21 17.7-21 31.5V489c0 12.5 10.2 22.7 22.7 22.7H365c12.5 0 22.7-10.2 22.7-22.7v-45.5c0-13.6-8.3-26.1-21.1-31.4z"/>
  <path d="M251.2 321.3H137.4v27.5c0 9.2-5.5 17.4-14.1 21l-15.9 6.6c121.5 30.9 143.8-55.1 143.8-55.1z" fill="#d29b6e"/>
  <path class="st6" d="M56.4 456.2l-45.6-36.4C4.7 426.1 1 434.5 1 443.7v45.5c0 12.5 10.2 22.7 22.7 22.7h45.5v-29.1c0-10.4-4.6-20.2-12.8-26.6zM387.7 489.2v-45.5c0-9-3.6-17.4-9.7-23.7l-45.8 36.2c-8.1 6.4-12.8 16.2-12.8 26.7V512H365c12.5-.1 22.7-10.3 22.7-22.8z"/>
  <path d="M251.2 102.4c-56.9 56.9-168.5 11.3-168.5 102.4l7.1 67c1.4 15 10.1 28.4 23.2 35.7l64.7 36c10.3 5.7 22.8 5.7 33.1 0l64.7-36c13.2-7.3 21.8-20.6 23.2-35.7l8.1-79.6c.6-5.7.6-11.3.5-17-4-29-44.7-50.1-56.1-72.8z" fill="#f0c087"/>
  <path class="st1" d="M82.7 204.7l7.1 67c1.4 15 10.1 28.4 23.2 35.7l64.7 36c7.1 4 15.3 5 23.2 3.5 0 0-32.6-9.9-52.1-62.5-5.9-16.1-14.2-101.5-7.1-111.9 14.1-20.6 92.4-22.7 115.5-61-1.2-1.4-2.2-2.8-3.2-4.3-.1-.1-.1-.3-.3-.4-1-1.5-1.9-3-2.7-4.5-56.6 56.9-168.3 11.4-168.3 102.4z"/>
  <path class="st9" d="M200.1 280c0 5.9-6.4 8-14.3 8s-17.1 3.2-17.1-2.7 9.3-16.1 17.1-16.1c7.8-.1 14.3 4.8 14.3 10.8z"/>
  <path class="st9" d="M227.7 287.9c0 7.1-16.2 17.9-31.1 17.9s-31.8-11.3-31.8-18.6c0-7.1 16.9 1.9 31.8 1.9 14.8.1 31.1-8.3 31.1-1.2z"/>
  <path class="st9" d="M224.7 285.1c0 5.9-9.5 2.3-17.4 2.3-7.9 0-14.3-1.5-14.3-7.5 0-5.9 6.4-10.8 14.3-10.8 7.8 0 17.4 10 17.4 16z"/>
</svg>