<svg xmlns="http://www.w3.org/2000/svg" x="0" y="0" viewBox="0 0 512 512" xml:space="preserve">
  <style>
    .st2{fill:#fff}
  </style>
  <circle cx="256" cy="256" r="256" fill="#718ba3"/>
  <path class="st2" d="M446.7 239.2c-3.5-4.4-88.3-119.2-196-119.2S58.3 234.8 54.7 239.2c-3.5 4.4-3.5 10.6 0 15.9 3.5 4.4 88.3 119.2 196 119.2s192.4-113.9 196-119.2c3.5-5.3 3.5-11.5 0-15.9zm-196 108.6c-79.4 0-148.3-75.9-168.6-100.6 20.3-24.7 89.2-100.6 168.6-100.6S399 222.5 419.3 247.2c-20.3 24.7-89.1 100.6-168.6 100.6z"/>
  <circle class="st2" cx="250.7" cy="247.2" r="77.7"/>
  <path d="M449.3 88.3c-3.5-4.4-7.9-8.8-12.4-13.2-4.4-4.4-8.8-7.9-13.2-12.4l-361 361c3.5 4.4 7.9 8.8 12.4 13.2 4.4 4.4 8.8 7.9 13.2 12.4l361-361z" fill="#001f35"/>
</svg>