<?xml version="1.0" encoding="utf-8"?>
<!-- Generator: Adobe Illustrator 22.1.0, SVG Export Plug-In . SVG Version: 6.00 Build 0)  -->
<svg version="1.1" id="Capa_1" xmlns="http://www.w3.org/2000/svg" xmlns:xlink="http://www.w3.org/1999/xlink" x="0px" y="0px"
	 viewBox="0 0 512 512" style="enable-background:new 0 0 512 512;" xml:space="preserve">
<style type="text/css">
	.st0{fill:#718BA3;}
	.st1{fill:#FFFFFF;}
	.st2{fill:#001F35;}
</style>
<circle class="st0" cx="256" cy="256" r="256"/>
<path class="st1" d="M197.7,176.6h-73.3c-10.6,0-18.5,7.9-18.5,18.5v113c0,10.6,7.9,18.5,18.5,18.5h73.3c3.5,0,6.2,0.9,9.7,2.6
	l117.4,109.5c12.4,7.1,28.2-1.8,28.2-15.9V80.3c0-14.1-15.9-23-28.2-15.9L207.4,173.9C204.8,175.7,201.3,176.6,197.7,176.6z"/>
<path class="st2" d="M449.3,88.3c-3.5-4.4-7.9-8.8-12.4-13.2c-4.4-4.4-8.8-7.9-13.2-12.4l-361,361c3.5,4.4,7.9,8.8,12.4,13.2
	c4.4,4.4,8.8,7.9,13.2,12.4L449.3,88.3z"/>
</svg>
