<?xml version="1.0" encoding="utf-8"?>
<!-- Generator: Adobe Illustrator 22.1.0, SVG Export Plug-In . SVG Version: 6.00 Build 0)  -->
<svg version="1.1" id="Capa_1" xmlns="http://www.w3.org/2000/svg" xmlns:xlink="http://www.w3.org/1999/xlink" x="0px" y="0px"
	 viewBox="0 0 512 512" style="enable-background:new 0 0 512 512;" xml:space="preserve">
<style type="text/css">
	.st0{fill:#718BA3;}
	.st1{fill:#F6F9FB;}
	.st2{fill:#FFC600;}
</style>
<circle class="st0" cx="256" cy="256" r="256"/>
<path class="st1" d="M144.8,176.6H71.5c-10.6,0-18.5,7.9-18.5,18.5v113c0,10.6,7.9,18.5,18.5,18.5h73.3c3.5,0,6.2,0.9,9.7,2.6
	l117.4,109.5c12.4,7.1,28.2-1.8,28.2-15.9V80.3c0-14.1-15.9-23-28.2-15.9L154.5,173.9C151.8,175.7,148.3,176.6,144.8,176.6z"/>
<path class="st2" d="M366.3,370.8c-2.6,0-4.4-0.9-6.2-2.6c-3.5-3.5-3.5-8.8,0-12.4c54.7-54.7,54.7-144.8,0-199.5
	c-3.5-3.5-3.5-8.8,0-12.4s8.8-3.5,12.4,0c61.8,61.8,61.8,162.4,0,225.1C371.6,369.9,369,370.8,366.3,370.8z"/>
<path class="st2" d="M335.4,335.4c-2.6,0-4.4-0.9-6.2-2.6c-3.5-3.5-3.5-8.8,0-12.4c38-38,38-99.8,0-137.7c-3.5-3.5-3.5-8.8,0-12.4
	c3.5-3.5,8.8-3.5,12.4,0c45,45,45,117.4,0,162.4C339.9,334.6,338.1,335.4,335.4,335.4z"/>
</svg>
